<mxfile host="app.diagrams.net" modified="2023-05-03T03:03:55.126Z" agent="Mozilla/5.0 (Windows NT 10.0; Win64; x64) AppleWebKit/537.36 (KHTML, like Gecko) Chrome/100.0.4896.60 Safari/537.36" version="21.2.6" etag="D_GtiRlX7SzgLTRUUdhI" type="github">
  <diagram name="第 1 页" id="Z85Dky3bpkn6bDT_2l9I">
    <mxGraphModel>
      <root>
        <mxCell id="0" />
        <mxCell id="1" parent="0" />
      </root>
    </mxGraphModel>
  </diagram>
</mxfile>
